<svg xmlns="http://www.w3.org/2000/svg" xmlns:xlink="http://www.w3.org/1999/xlink" width="55.815" height="57.522" viewBox="0 0 55.815 57.522"><defs><clipPath id="a"><rect width="55.815" height="57.522" fill="none"/></clipPath></defs><g clip-path="url(#a)"><path d="M125.663,35.566c6.167-2.317,11.1-8.463,8.948-16.893a13.714,13.714,0,0,0-3.792-6.654,4.022,4.022,0,0,0,1.8-3.255A5.579,5.579,0,0,0,131.367,5.5a4.408,4.408,0,0,0-5.322-1.233c-1.545.823-1.9,2.4-1.977,3.987a31.106,31.106,0,0,0-16.3-.011c-.076-1.583-.435-3.154-1.977-3.975A4.408,4.408,0,0,0,100.473,5.5a5.589,5.589,0,0,0-1.254,3.261,4.027,4.027,0,0,0,1.792,3.249,13.754,13.754,0,0,0-3.781,6.66c-2.15,8.416,2.764,14.555,8.916,16.881v7.715c-.263,3.347-.132,8.109,2.01,11.707a13.254,13.254,0,0,0,.463,2.807,2.791,2.791,0,0,0,1.2,1.973A3.387,3.387,0,0,0,111.58,60c.959-.071,1.636-.327,1.877-1.328a13.625,13.625,0,0,0,.36-2.543,3.979,3.979,0,0,0,.01-.776c.258.027,3.9.027,4.155,0a4,4,0,0,0,.01.776,13.639,13.639,0,0,0,.36,2.543c.24,1,.918,1.258,1.876,1.328a3.387,3.387,0,0,0,1.762-.248,2.791,2.791,0,0,0,1.2-1.973,13.276,13.276,0,0,0,.463-2.807,12.58,12.58,0,0,0,1.431-7.894l.311,1.981s1.047,2.789,4.993-.99c2.683-2.569-1.665-8.054-4.725-11.3Z" transform="translate(-79.972 -3.162)" fill="#ad8c7a"/><path d="M131.446,15.511l.642-.164a15.34,15.34,0,0,0-1.583-3.924,13.807,13.807,0,0,0-2.393-3.044l-.458.477.329.574a3.745,3.745,0,0,0,.905-.739,4.831,4.831,0,0,0,.9-1.465,4.63,4.63,0,0,0,.333-1.617V5.568A4.517,4.517,0,0,0,130,4.586a6.827,6.827,0,0,0-.509-1.451A5.533,5.533,0,0,0,128.7,1.9a5.76,5.76,0,0,0-1.839-1.4A5.064,5.064,0,0,0,124.682,0a4.467,4.467,0,0,0-2.112.524,3.985,3.985,0,0,0-1.138.9,4.086,4.086,0,0,0-.563.841,5.4,5.4,0,0,0-.464,1.385,9.457,9.457,0,0,0-.162,1.419l.661.031.19-.634a31.758,31.758,0,0,0-16.677-.012l.189.635.661-.031a10.011,10.011,0,0,0-.133-1.259,5.276,5.276,0,0,0-.656-1.829,3.94,3.94,0,0,0-.643-.8,4.047,4.047,0,0,0-.894-.64A4.467,4.467,0,0,0,100.828,0,5.064,5.064,0,0,0,98.65.507a5.758,5.758,0,0,0-1.839,1.4,4.975,4.975,0,0,0-.556.784,6.941,6.941,0,0,0-.614,1.4,5.073,5.073,0,0,0-.249,1.475v.044h0a4.389,4.389,0,0,0,.155,1.078,5.026,5.026,0,0,0,.71,1.542,3.966,3.966,0,0,0,1.257,1.193l.331-.573-.459-.477A13.786,13.786,0,0,0,95,11.42a15.407,15.407,0,0,0-1.579,3.927,16.5,16.5,0,0,0-.535,4.095A13.83,13.83,0,0,0,94.028,25a14.585,14.585,0,0,0,5.031,6.061,16.706,16.706,0,0,0,7.194,2.855,42.175,42.175,0,0,0,5.968.456c.182,0,.363,0,.544,0l-.011-.662-.01.662c.181,0,.363,0,.544,0a42.185,42.185,0,0,0,5.969-.456,16.7,16.7,0,0,0,4.939-1.524,15.551,15.551,0,0,0,5.973-5.045,13.65,13.65,0,0,0,1.8-3.635,13.989,13.989,0,0,0,.655-4.273,16.535,16.535,0,0,0-.534-4.095l-.642.164-.641.164a15.188,15.188,0,0,1,.493,3.767,12.476,12.476,0,0,1-1.03,5.03,13.254,13.254,0,0,1-4.579,5.508,15.4,15.4,0,0,1-6.62,2.628,40.978,40.978,0,0,1-5.781.443q-.261,0-.522,0h-.021q-.261,0-.523,0a40.976,40.976,0,0,1-5.78-.443,15.391,15.391,0,0,1-4.546-1.4,14.229,14.229,0,0,1-5.466-4.61A12.341,12.341,0,0,1,94.8,23.311a12.648,12.648,0,0,1-.592-3.869,15.188,15.188,0,0,1,.493-3.767,14.1,14.1,0,0,1,1.443-3.592A12.491,12.491,0,0,1,98.3,9.327a.662.662,0,0,0-.127-1.05A2.416,2.416,0,0,1,97.6,7.8a3.522,3.522,0,0,1-.644-1.06,3.328,3.328,0,0,1-.239-1.145V5.568a3.238,3.238,0,0,1,.085-.694,5.471,5.471,0,0,1,.41-1.163,4.233,4.233,0,0,1,.594-.932A4.454,4.454,0,0,1,99.22,1.7a3.752,3.752,0,0,1,1.609-.377,3.135,3.135,0,0,1,1.49.368,2.638,2.638,0,0,1,.761.6,2.718,2.718,0,0,1,.379.565,4.113,4.113,0,0,1,.347,1.043,8.267,8.267,0,0,1,.138,1.218.661.661,0,0,0,.85.6,30.455,30.455,0,0,1,15.919.011.662.662,0,0,0,.851-.6,8.445,8.445,0,0,1,.113-1.092,3.959,3.959,0,0,1,.482-1.377,2.575,2.575,0,0,1,.427-.533,2.672,2.672,0,0,1,.6-.432,3.13,3.13,0,0,1,1.49-.368,3.752,3.752,0,0,1,1.609.377,4.455,4.455,0,0,1,1.415,1.077,3.681,3.681,0,0,1,.405.576,5.624,5.624,0,0,1,.5,1.132,3.8,3.8,0,0,1,.189,1.082c0,.009,0,.018,0,.027a3.079,3.079,0,0,1-.11.754,3.728,3.728,0,0,1-.524,1.136,2.654,2.654,0,0,1-.835.8.661.661,0,0,0-.13,1.052,12.525,12.525,0,0,1,2.165,2.754,13.99,13.99,0,0,1,1.444,3.586Z" transform="translate(-76.807 0)" fill="#5a3200"/><path d="M262.2,115.9a3.634,3.634,0,0,0-1.4.314,2.332,2.332,0,0,0-.974,3.635,2.683,2.683,0,0,0,2.02,1.043c.08.007.16.01.24.01a2.623,2.623,0,0,0,2.623-1.981,2.662,2.662,0,0,0-1.08-2.464,1.921,1.921,0,0,0-1.427-.558" transform="translate(-214.432 -95.832)" fill="#e1b0a0"/><path d="M127.488,115.9a3.635,3.635,0,0,0-1.4.314,2.332,2.332,0,0,0-.973,3.635,2.681,2.681,0,0,0,2.02,1.043c.08.007.16.01.24.01a2.623,2.623,0,0,0,2.623-1.981,2.663,2.663,0,0,0-1.08-2.464,1.923,1.923,0,0,0-1.427-.558" transform="translate(-103.039 -95.832)" fill="#e1b0a0"/><path d="M241.6,96.374a1.394,1.394,0,0,1,.393,1.793,1.186,1.186,0,0,1-.995.514,1.109,1.109,0,0,1-.767-.5c-.489-.786.043-2.227,1.14-1.9a1.142,1.142,0,0,1,.229.1" transform="translate(-198.489 -79.571)" fill="#5a3200"/><path d="M163.53,96.374a1.394,1.394,0,0,0-.394,1.793,1.187,1.187,0,0,0,1,.514,1.108,1.108,0,0,0,.767-.5c.489-.786-.043-2.227-1.14-1.9a1.147,1.147,0,0,0-.229.1" transform="translate(-134.743 -79.571)" fill="#5a3200"/><path d="M44.624,32.423l.255,1.988a.786.786,0,1,0,1.56-.2l-.255-1.988a.786.786,0,0,0-1.56.2" transform="translate(-36.893 -26.077)" fill="#ff5952"/><path d="M15.533,44.037l1.462,1.753A.786.786,0,1,0,18.2,44.783L16.74,43.03a.786.786,0,1,0-1.208,1.007" transform="translate(-12.693 -35.347)" fill="#ff5952"/><path d="M.582,71.843l2.156.582a.786.786,0,1,0,.41-1.518L.991,70.325a.786.786,0,0,0-.41,1.518" transform="translate(0 -58.127)" fill="#ff5952"/><path d="M64.794,93.788c-3.743-2.138-8.431-7.648-10.186-9.972,1.4-3.29.176-7.355-4.5-7.809a4.678,4.678,0,0,0-1.905.238c-.935-1.585-3.815-4.2-5.421-2.811-1.972,1.7.31,4.468,1.378,6.074l-.042.067a5.79,5.79,0,0,0,.33,6.553,4.949,4.949,0,0,0,4.446,1.9,66.4,66.4,0,0,0,12.6,10.687" transform="translate(-34.733 -60.397)" fill="#ad8c7a"/><path d="M83.1,98.067a11.919,11.919,0,0,0-.83-1.8,23.772,23.772,0,0,0-2.1-3.088,44.766,44.766,0,0,0-3.035-3.432c-.484.124-.95.287-1.426.44.73.73,1.647,1.69,2.559,2.761a26.376,26.376,0,0,1,2.721,3.74,11.057,11.057,0,0,1,.867,1.826,4.818,4.818,0,0,1,.31,1.574,2.348,2.348,0,0,1-.153.87,1.972,1.972,0,0,1-.481.708,8.855,8.855,0,0,1-1.9,1.456,3.34,3.34,0,0,1-.657.271,1.745,1.745,0,0,1-.467.07.974.974,0,0,1-.43-.09.888.888,0,0,1-.213-.143,1.078,1.078,0,0,1-.2-.245.888.888,0,0,1-.042-.078l-.006-.014,0,.009-.163.061v-.005l.159-.065a.66.66,0,0,0-.163-.24,20.731,20.731,0,0,0-.991-5.687,19.907,19.907,0,0,0-1-2.6.662.662,0,0,0-1.187.587A18.838,18.838,0,0,1,75.2,97.4a19.133,19.133,0,0,1,.923,5.6,12.611,12.611,0,0,1-.322,2.9,9.9,9.9,0,0,1-1.122,2.8.659.659,0,0,0-.092.3,12.6,12.6,0,0,1-.441,2.667,5.346,5.346,0,0,1-.345,1,1.508,1.508,0,0,1-.227.337.972.972,0,0,1-.286.217,1.734,1.734,0,0,1-.466.15,3.057,3.057,0,0,1-.557.046c-.129,0-.261-.006-.394-.016a3.405,3.405,0,0,1-.554-.079,1.354,1.354,0,0,1-.283-.1.7.7,0,0,1-.257-.208.885.885,0,0,1-.1-.172,1.515,1.515,0,0,1-.087-.263,12.976,12.976,0,0,1-.342-2.421c-.01-.2-.027-.364-.026-.491a1.066,1.066,0,0,1,.01-.154.662.662,0,0,0-.717-.757h0l-.073,0c-.143,0-.427.008-.772.01s-.758,0-1.17,0c-.486,0-.971,0-1.35,0l-.472-.006-.145,0-.04,0h-.008a.662.662,0,0,0-.717.757,1.019,1.019,0,0,1,.01.154c0,.128-.016.294-.026.491a12.968,12.968,0,0,1-.342,2.421,1.22,1.22,0,0,1-.164.4.666.666,0,0,1-.149.16,1.025,1.025,0,0,1-.358.166,3.174,3.174,0,0,1-.61.094c-.133.01-.265.016-.394.016a3.059,3.059,0,0,1-.557-.046,1.735,1.735,0,0,1-.466-.15.972.972,0,0,1-.286-.217,1.806,1.806,0,0,1-.325-.554,7.329,7.329,0,0,1-.247-.785,12.62,12.62,0,0,1-.44-2.667.657.657,0,0,0-.092-.3,13.793,13.793,0,0,1-1.6-4.334,23.246,23.246,0,0,1-.421-4.561,31.917,31.917,0,0,1,.214-3.624.661.661,0,0,0,.151-1.2h0A65.83,65.83,0,0,1,46.217,84.419a.664.664,0,0,0-.542-.208q-.223.019-.441.02a4.292,4.292,0,0,1-1.852-.4A4.471,4.471,0,0,1,41.8,82.552a4.677,4.677,0,0,1-.786-1.441,5,5,0,0,1-.256-1.592,5.452,5.452,0,0,1,.764-2.768l.038-.061a.661.661,0,0,0-.014-.711c-.2-.3-.43-.625-.663-.968A12.881,12.881,0,0,1,39.92,73.4a5,5,0,0,1-.306-.784,2.543,2.543,0,0,1-.108-.694,1.442,1.442,0,0,1,.121-.6,1.568,1.568,0,0,1,.426-.55.92.92,0,0,1,.3-.176,1.044,1.044,0,0,1,.347-.055,1.734,1.734,0,0,1,.443.064,3.63,3.63,0,0,1,.932.419,7.481,7.481,0,0,1,1.411,1.148,8.139,8.139,0,0,1,.574.652,5.517,5.517,0,0,1,.413.595.66.66,0,0,0,.776.293,4.224,4.224,0,0,1,1.311-.224q.164,0,.324.016a5.992,5.992,0,0,1,2.032.537,4.314,4.314,0,0,1,1.077.727,4.04,4.04,0,0,1,1,1.475,4.857,4.857,0,0,1,.332,1.8,6.052,6.052,0,0,1-.492,2.35.663.663,0,0,0,.081.658c.448.593,1.077,1.382,1.83,2.268,1.129,1.329,2.535,2.876,4.022,4.3.744.713,1.508,1.4,2.27,2.006A17.935,17.935,0,0,0,61.3,91.2a.662.662,0,0,0,.657-1.15,18.886,18.886,0,0,1-2.821-2.061,47.457,47.457,0,0,1-4.194-4.166c-1.128-1.254-2.094-2.43-2.747-3.275a7.322,7.322,0,0,0,.453-2.5A6.24,6.24,0,0,0,52.317,76a5.375,5.375,0,0,0-1.847-2.553,5.944,5.944,0,0,0-1.538-.831,7.677,7.677,0,0,0-1.922-.426q-.226-.022-.452-.022a5.307,5.307,0,0,0-1.229.15,8.6,8.6,0,0,0-.564-.707A9.285,9.285,0,0,0,42.935,70a5.615,5.615,0,0,0-1.077-.557,3.315,3.315,0,0,0-1.16-.229,2.364,2.364,0,0,0-.787.131,2.249,2.249,0,0,0-.723.422,2.9,2.9,0,0,0-.77,1.012,2.772,2.772,0,0,0-.236,1.141,4.153,4.153,0,0,0,.268,1.4,9.593,9.593,0,0,0,.973,1.88c.276.43.557.83.8,1.178a6.764,6.764,0,0,0-.782,3.142,6.322,6.322,0,0,0,.325,2.014A6,6,0,0,0,40.77,83.38a5.8,5.8,0,0,0,2.046,1.643,5.621,5.621,0,0,0,2.419.531c.076,0,.152,0,.228-.005a69.909,69.909,0,0,0,11.791,10.1,33.468,33.468,0,0,0-.27,4.162,24.587,24.587,0,0,0,.447,4.823,15.235,15.235,0,0,0,1.674,4.608,14.015,14.015,0,0,0,.475,2.784,6.49,6.49,0,0,0,.443,1.255,2.825,2.825,0,0,0,.43.63,2.3,2.3,0,0,0,.67.506,3.068,3.068,0,0,0,.817.268,4.388,4.388,0,0,0,.8.068c.168,0,.333-.007.491-.019a4.709,4.709,0,0,0,.773-.114,2.684,2.684,0,0,0,.557-.2,2.029,2.029,0,0,0,.722-.595,2.217,2.217,0,0,0,.252-.429,2.825,2.825,0,0,0,.167-.5,14.274,14.274,0,0,0,.378-2.666c0-.04,0-.084.008-.131l.274,0c.343,0,.744,0,1.145,0,.489,0,.977,0,1.361-.005h.057c0,.047.006.091.008.131a14.284,14.284,0,0,0,.378,2.666,2.529,2.529,0,0,0,.355.836,2,2,0,0,0,.438.467,2.34,2.34,0,0,0,.811.392,4.459,4.459,0,0,0,.867.139c.159.012.323.019.492.019a4.391,4.391,0,0,0,.8-.068,3.064,3.064,0,0,0,.817-.268,2.3,2.3,0,0,0,.67-.506,3.1,3.1,0,0,0,.578-.955,8.508,8.508,0,0,0,.3-.929,14.044,14.044,0,0,0,.475-2.783,11.27,11.27,0,0,0,1.191-3.037,13.111,13.111,0,0,0,.283-1.707,2.19,2.19,0,0,0,.346.157,2.352,2.352,0,0,0,.78.129,3.061,3.061,0,0,0,.823-.119,5.262,5.262,0,0,0,1.42-.67,11.532,11.532,0,0,0,1.7-1.376,3.294,3.294,0,0,0,.8-1.178,3.672,3.672,0,0,0,.245-1.356,6.124,6.124,0,0,0-.388-2.022" transform="translate(-31.572 -57.235)" fill="#5a3200"/><path d="M76.144,105.649a3.084,3.084,0,0,0-.966.179,3.8,3.8,0,0,0-.7.326,3.089,3.089,0,0,0-.9.788,2.194,2.194,0,0,0-.3.551,1.886,1.886,0,0,0-.119.656s0,.009,0,.018v0a2.087,2.087,0,0,0,.079.547,2.643,2.643,0,0,0,.412.833,3.358,3.358,0,0,0,1.019.917,2.994,2.994,0,0,0,.628.277,2.364,2.364,0,0,0,.688.107q.093,0,.186-.008a.662.662,0,1,0-.121-1.318c-.021,0-.042,0-.065,0a1.2,1.2,0,0,1-.482-.118,1.953,1.953,0,0,1-.4-.243,1.928,1.928,0,0,1-.464-.515,1.254,1.254,0,0,1-.12-.264.784.784,0,0,1-.038-.227v0l-.252,0h.252v0l-.252,0h.252v0a.555.555,0,0,1,.029-.174.973.973,0,0,1,.217-.346,1.809,1.809,0,0,1,.306-.261,2.446,2.446,0,0,1,.587-.293,1.774,1.774,0,0,1,.536-.1.662.662,0,0,0-.012-1.324" transform="translate(-60.492 -87.358)" fill="#5a3200"/><path d="M180.5,105.081a7.44,7.44,0,0,0-1.921-3.687c-.143-.172-.287-.34-.431-.5a11.727,11.727,0,0,0-3.947-3.157,2.842,2.842,0,0,0-1.933,0,11.728,11.728,0,0,0-3.947,3.157c-.143.165-.288.333-.431.5a7.441,7.441,0,0,0-1.921,3.687,6.114,6.114,0,0,0,.326,2.77c.938,2.435,4.231,2.928,6.9,2.932h.079c2.669,0,5.962-.5,6.9-2.932a6.114,6.114,0,0,0,.327-2.77" transform="translate(-137.204 -80.67)" fill="#fff"/><path d="M193.736,100.83a3.147,3.147,0,0,1,3.771-.024,1.939,1.939,0,0,1-.876,3.344,3.081,3.081,0,0,1-2.781-.491,1.886,1.886,0,0,1-.114-2.829" transform="translate(-159.709 -82.845)" fill="#5a3200"/><path d="M192.464,142.73v-.455h-6.872a.455.455,0,0,0-.453.412c0,.012-.011.119-.011.292a4.99,4.99,0,0,0,.1.975,4.213,4.213,0,0,0,.312.958,3.418,3.418,0,0,0,.46.727,3.176,3.176,0,0,0,1.175.88,4.473,4.473,0,0,0,1.819.345,5.038,5.038,0,0,0,1.194-.134,3.453,3.453,0,0,0,1.508-.77,3.326,3.326,0,0,0,.677-.842,4.213,4.213,0,0,0,.464-1.29,5,5,0,0,0,.089-.924c0-.123-.005-.2-.006-.208a.456.456,0,0,0-.454-.421v.455l-.454.035.277-.021-.277.02h0l.277-.021-.277.02v0c0,.01,0,.059,0,.138a4.066,4.066,0,0,1-.076.767,3.468,3.468,0,0,1-.243.771,2.634,2.634,0,0,1-.343.56,2.33,2.33,0,0,1-.864.666,3.579,3.579,0,0,1-1.5.284,3.365,3.365,0,0,1-1.646-.363,2.228,2.228,0,0,1-.693-.589,2.867,2.867,0,0,1-.508-1.105,4.05,4.05,0,0,1-.106-.917c0-.069,0-.123,0-.159l0-.039v-.008h0l-.241-.022.241.023h0l-.241-.022.241.023-.453-.044v.455h6.872v-.455l-.454.035Z" transform="translate(-153.078 -117.644)" fill="#5a3200"/></g></svg>