<svg xmlns="http://www.w3.org/2000/svg" width="96" height="96" viewBox="0 0 96 96" role="img" aria-hidden="true">
  <defs><linearGradient id="bg" x1="0" y1="0" x2="1" y2="1"><stop offset="0" stop-color="#2d4a7a"/><stop offset="1" stop-color="#5c6bc0"/></linearGradient><clipPath id="c"><circle cx="48" cy="48" r="48"/></clipPath></defs>
  <circle cx="48" cy="48" r="48" fill="url(#bg)"/>
  <g clip-path="url(#c)">
    <path d="M14 100 Q16 68 48 65 Q80 68 82 100Z" fill="#2f5aa8"/>
    <path d="M38 66 L48 82 L58 66 Z" fill="#f4f6fa"/>
    <rect x="46" y="70" width="4" height="14" fill="#1e3f7a"/>
    <rect x="41" y="55" width="14" height="13" rx="3" fill="#d9a488"/>
    <circle cx="48" cy="45" r="17" fill="#e8b89a"/>
    <path d="M26 41 Q26 17 48 17 Q70 17 70 41 Z" fill="#f5f7fa"/>
    <rect x="23" y="39" width="50" height="6" rx="3" fill="#cfd6e0"/>
    <rect x="45" y="19" width="6" height="16" rx="3" fill="#ffffff" opacity=".35"/>
    <path d="M36 44 Q41 41 46 44" stroke="#3d2b1f" stroke-width="1.6" fill="none"/><path d="M50 44 Q55 41 60 44" stroke="#3d2b1f" stroke-width="1.6" fill="none"/>
    <ellipse cx="41" cy="49" rx="2.1" ry="2.7" fill="#3d2b1f"/>
    <ellipse cx="55" cy="49" rx="2.1" ry="2.7" fill="#3d2b1f"/>
    <path d="M42 56 Q48 60 54 56" stroke="#c97b62" stroke-width="2" fill="none" stroke-linecap="round"/>
  </g>
</svg>
